<svg width="180" height="60" viewBox="0 0 180 60" fill="none" xmlns="http://www.w3.org/2000/svg">
  <!-- Gold rectangle background -->
  <rect width="180" height="60" rx="4" fill="#F2C94C" fill-opacity="0.1"/>
  
  <!-- Text "ZARFUEL" -->
  <path d="M25.0312 38V22.7812H43.4219V26.9844H30.2031V28.4375H41.3125V32.5156H30.2031V33.7969H43.6562V38H25.0312Z" fill="#1E293B"/>
  <path d="M47.5312 38V22.7812H53.4531L59.6094 31.7969H59.7188V22.7812H64.6094V38H58.7188L52.5 28.9844H52.3906V38H47.5312Z" fill="#1E293B"/>
  <path d="M67.7188 38V22.7812H73.6406L79.7969 31.7969H79.9062V22.7812H84.7969V38H78.9062L72.6875 28.9844H72.5781V38H67.7188Z" fill="#1E293B"/>
  <path d="M87.9062 38V22.7812H102.906V26.9844H93.0781V28.4375H101.672V32.5156H93.0781V33.7969H103.016V38H87.9062Z" fill="#1E293B"/>
  <path d="M114.656 38L109.797 32.2188H109.703V38H104.531V22.7812H112.75C114.125 22.7812 115.297 23.0156 116.266 23.4844C117.234 23.9531 117.961 24.5938 118.445 25.4062C118.93 26.2188 119.172 27.1562 119.172 28.2188C119.172 29.4062 118.812 30.4062 118.094 31.2188C117.375 32.0312 116.344 32.5781 115 32.8594L120.406 38H114.656ZM109.703 28.9844H112.344C112.969 28.9844 113.445 28.8125 113.773 28.4688C114.102 28.125 114.266 27.6406 114.266 27.0156C114.266 26.4219 114.109 25.9531 113.797 25.6094C113.484 25.2656 113 25.0938 112.344 25.0938H109.703V28.9844Z" fill="#1E293B"/>
  <path d="M121.594 22.7812H132.922C134.359 22.7812 135.602 23.0938 136.656 23.7188C137.719 24.3438 138.539 25.2188 139.117 26.3438C139.695 27.4688 139.984 28.7656 139.984 30.2344C139.984 31.7188 139.695 33.0312 139.117 34.1719C138.539 35.3125 137.719 36.1875 136.656 36.7969C135.602 37.3906 134.359 37.6875 132.922 37.6875H121.594V22.7812ZM132.641 33.5156C133.734 33.5156 134.578 33.1875 135.172 32.5312C135.766 31.875 136.062 31.1875 136.062 30C136.062 28.8125 135.766 27.9375 135.172 27.2812C134.578 26.625 133.734 26.2969 132.641 26.2969H126.656V33.5156H132.641Z" fill="#1E293B"/>
  <path d="M142.469 38V22.7812H157.469V26.9844H147.641V28.4375H156.234V32.5156H147.641V33.7969H157.578V38H142.469Z" fill="#1E293B"/>
  <path d="M159.391 38V22.7812H164.781V33.7969H174.938V38H159.391Z" fill="#1E293B"/>
  
  <!-- Fuel icon -->
  <path d="M150 15C151.105 15 152 14.1046 152 13C152 11.8954 151.105 11 150 11C148.895 11 148 11.8954 148 13C148 14.1046 148.895 15 150 15Z" fill="#F2C94C"/>
  <path d="M158 15C159.105 15 160 14.1046 160 13C160 11.8954 159.105 11 158 11C156.895 11 156 11.8954 156 13C156 14.1046 156.895 15 158 15Z" fill="#F2C94C"/>
  <path d="M142 15C143.105 15 144 14.1046 144 13C144 11.8954 143.105 11 142 11C140.895 11 140 11.8954 140 13C140 14.1046 140.895 15 142 15Z" fill="#F2C94C"/>
  <path d="M134 15C135.105 15 136 14.1046 136 13C136 11.8954 135.105 11 134 11C132.895 11 132 11.8954 132 13C132 14.1046 132.895 15 134 15Z" fill="#F2C94C"/>
  <path d="M126 15C127.105 15 128 14.1046 128 13C128 11.8954 127.105 11 126 11C124.895 11 124 11.8954 124 13C124 14.1046 124.895 15 126 15Z" fill="#F2C94C"/>
  
  <!-- Line under ZARFUEL -->
  <rect x="25" y="42" width="130" height="2" rx="1" fill="#F2C94C"/>
  
  <!-- Tagline -->
  <text x="90" y="52" fill="#475569" font-family="Arial" font-size="8" text-anchor="middle">PROJECT COMPASS</text>
</svg> 