<?xml version="1.0" encoding="UTF-8"?>
<svg id="Layer_1" data-name="Layer 1" xmlns="http://www.w3.org/2000/svg" viewBox="0 0 803.55 882.32">
  <defs>
    <style>
      .cls-1 {
        fill: #d07d2b;
      }

      .cls-2 {
        fill: #d37828;
      }

      .cls-3 {
        fill: #424a4e;
        font-family: MyriadPro-Semibold, 'Myriad Pro';
        font-size: 267.59px;
        font-weight: 600;
      }

      .cls-4 {
        fill: #d2862a;
      }

      .cls-5 {
        fill: #edb920;
      }

      .cls-6 {
        fill: #ce7f2a;
      }

      .cls-7 {
        fill: #d0882c;
      }

      .cls-8 {
        fill: #e4a925;
      }

      .cls-9 {
        fill: #d89828;
      }

      .cls-10 {
        fill: #e9b022;
      }

      .cls-11 {
        fill: #e6ab24;
      }

      .cls-12 {
        fill: #ce7f29;
      }

      .cls-13 {
        fill: #ebb520;
      }

      .cls-14 {
        fill: #d2842d;
      }

      .cls-15 {
        letter-spacing: .03em;
      }

      .cls-16 {
        fill: #e8ae23;
      }

      .cls-17 {
        fill: #e2a525;
      }

      .cls-18 {
        fill: #ebb421;
      }

      .cls-19 {
        fill: #e8b022;
      }

      .cls-20 {
        fill: #e2a526;
      }

      .cls-21 {
        fill: #e1a35b;
      }

      .cls-22 {
        fill: #d07e29;
      }

      .cls-23 {
        fill: #ce802b;
      }

      .cls-24 {
        fill: #f3c326;
      }

      .cls-25 {
        fill: #e9b122;
      }

      .cls-26 {
        fill: #e4a825;
      }

      .cls-27 {
        fill: #d0852a;
      }

      .cls-28 {
        fill: #ebb620;
      }

      .cls-29 {
        fill: #e19b2a;
      }

      .cls-30 {
        fill: #d0822a;
      }

      .cls-31 {
        fill: #e7ad23;
      }

      .cls-32 {
        fill: #f2c225;
      }

      .cls-33 {
        fill: #edb91f;
      }

      .cls-34 {
        fill: #e1a326;
      }

      .cls-35 {
        fill: #d0832a;
      }

      .cls-36 {
        fill: #dea027;
      }

      .cls-37 {
        fill: #d89729;
      }

      .cls-38 {
        fill: #ce802a;
      }

      .cls-39 {
        fill: #e09a2a;
      }

      .cls-40 {
        fill: #d59329;
      }

      .cls-41 {
        fill: #e5aa24;
      }

      .cls-42 {
        fill: #e3a725;
      }

      .cls-43 {
        fill: #dc9d28;
      }

      .cls-44 {
        fill: #d18929;
      }

      .cls-45 {
        fill: #ce812b;
      }

      .cls-46 {
        fill: #cd7729;
      }

      .cls-47 {
        fill: #d2882b;
      }

      .cls-48 {
        fill: #edba20;
      }

      .cls-49 {
        fill: #d2842a;
      }

      .cls-50 {
        fill: #de9d51;
      }

      .cls-51 {
        fill: #f0bf23;
      }

      .cls-52 {
        fill: #d0842a;
      }

      .cls-53 {
        fill: #dfa127;
      }

      .cls-54 {
        fill: #dfa126;
      }

      .cls-55 {
        fill: #e09928;
      }

      .cls-56 {
        fill: #e0a326;
      }

      .cls-57 {
        fill: #efbe22;
      }
    </style>
  </defs>
  <g>
    <path class="cls-40" d="M249.37,413.11c1.5-28.8,15.14-10.39,12.28,7.21,9.25,6.23,14.65,16.17,16.2,29.81,6.55,6.3,8.13,12.49,4.73,18.58,6.68,7.16,11.09,14.03,13.17,23.59,2.2-1.47,3.85-.32,4.58,2.35-3.78,7.76-6.24,16.12-10.19,23.78-1.75,2.24-2.32,4.51-1.7,6.79-.87,2.71-1.62,3.19-1.7,3.4-1.13.97-1.69,2.66-1.7,5.1-1.14,14.43-7.22,27.72-5.11,42.46-.41.56-2.09-.99-2.54-1.69-12.92-19.78-27.83-82.54-29.72-107.02,1.25-3.9,1.54-15.04,0-8.49-3.03-2.82-1.66-9.34-1.7-13.59.03-1.1.6-1.67,1.7-1.7,1.5-6.64,1.48-13.73,0-20.38-.48,1.48-1.05,1.46-1.7,0,.16-3.37-.26-6.83,0-10.19.97-4.48,1.87-4.35,3.4,0Z"/>
    <path class="cls-40" d="M490.61,12.26c11.4,10.9,21.99,71.32,23.78,88.32-.61,4.66-1.18,9.19-1.7,13.59,2.07,19.25,2.64,38.5,1.7,57.75-.15,1.42.41,8.38-1.7,8.49-1.82,1.1-.8,4.7,0,6.79-.08.78-.9,1.52-1.7,1.7-11.07-3.35-17.38-12.42-18.92-27.22-4.42-4.36-6.5-10.45-6.26-18.27-10.18-18.68-12.47-36.38-6.86-53.08l-1.95-1.65c-.93,1.12-1.49.56-1.7-1.7,1.43-4.34,3.68-8.42,5-12.84,2.9-9.74,4.58-19.77,6.9-29.62,1.95.83.75-4.66,0-6.79-.14-8.99-.28-18.19,0-27.18.46-2.66,1.59-2.1,3.4,1.7Z"/>
    <path class="cls-40" d="M560.27,207.59c.6,13.27,1.73,25.15,3.4,35.67,2.68.06,1.71,20.06,1.7,23.78-2.1,11.13-2.67,23.02-1.7,35.67-.5,4.41-2.75,9.75-3.4,13.59-1.35.12-1.35,1.82,0,5.1-1.72,9.27-3.3,21.01-8.49,28.87-4.13-3.46-7.49-7.71-10.07-12.78-4.46-20.67-9.13-41.42-16.13-61.04,1.82-5.49,1.86-6.4-.98-11.11,1.51-3.14,3.92-7.44,5.1-10.19,2.26-1.58,2.49-4.39,1.7-6.79,3.82-9.71,7.37-18.75,10.19-28.87,2.47-2.18,2.64-2.98,1.7-6.79,2.17-8.62,3.52-25.98,6.8-32.27.47-3.52,1.6-4.66,3.4-3.4,2.96,10.16,5.17,20.05,6.8,30.57Z"/>
    <path class="cls-24" d="M349.61,239.86c9.63-2.64,14.78-.14,15.45,7.48,8.56,15.19,18.5,33.54,20.77,50.53,6.53,3.28,9.6,8.18,9.22,14.7,7.31,13.73,13.44,27.86,18.39,42.4l-4.37,7.19c-2.25,2.35-4.61,4.52-6.8,6.79-13.04,5.57-30.18-24.67-29.57-36.36-7.03-4.54-11.3-12.6-12.82-24.2-9.81-14.41-18.06-29.41-24.74-45.01-5.55-1.35-5.2-4.1-2.52-8.24,5.51-5.24,11.27-10.27,16.99-15.29Z"/>
    <path class="cls-37" d="M259.56,358.76c5.48-3.46,9.1,2.27,10.86,17.18l18.7,31.83c.11,5.79,1.25,10.01,3.42,12.65,2.6,12.65,7.7,25.17,15.3,37.56-2.63,4.73-1.4,8.19,3.68,10.38l-.98,4.19c-2.99,4.92-6.97,15.46-10.19,22.08-3.36-2.02-3.6,5.07-5.07,3.38-4.05-4.61-4.1-11.62-6.7-16.33-1.86-3.38-7.92-8.79-9.55-12.56-.8-1.86,2.35-3.01,2.31-5.64-.1-6.39-5.28-8.68-6.13-10.76-2.4-5.93-4.33-18.63-8.06-24.27-2.09-3.16-7.33-4.44-8.52-6.87-1.07-2.17,1.19-5.62.68-8.91-.64-4.06-5.65-9.56-4.84-14.87l-3.4,16.97c-1.47.41-1.57-1.66-1.68-1.7-1.23-1.94-1.79-5.33-1.7-10.19,2.1-16.26,6.41-29.14,11.89-44.16Z"/>
    <path class="cls-9" d="M477.02,88.7c1.52-.05,2.32-3.4,5.06.84-3.35,5.4-3.99,20.6-2.37,26.5,2.88,10.45,9.19,21.32,10.75,33.19.26,2-1.62,5.01-1.31,5.5.27.42,3.25.7,5.23,4.06,3.7,6.25,3.8,17.01,6.56,20.65,2.53,3.33,8.91,3.04,10.05,9.47,1.75,9.88-6.88,29.64-10.19,39.07-12.73,8.29-14.72-5.67-14.09-16.02-8.69-11.51-11.94-27.45-11.57-41.56l-5.67-5.38c-1.27-14.96-6.11-27.38-14.54-37.25,3.11-5.07,16.77-33.67,18.69-33.97,1.39-1.48,2.53-3.18,3.4-5.1Z"/>
    <path class="cls-40" d="M313.93,523.51c3.48-10.47,6.49-13.15,14.02-3.04,1.08,1.45,13.02,29.07,13.2,30.73l-1.74,4.58c-12.01,13.52-27.36,36.59-35.68,52.65-1.31,1.83-2.44,4.1-3.4,6.79-1.59,6.2-3.35,9.84-5.1,15.29-.54,4.51-2.1,4.32-3.4,0-.8-38.74,1.5-70.13,18.69-105.31,1.15-2.22,2.28-2.78,3.4-1.7Z"/>
    <path class="cls-57" d="M364.9,226.27c6.41-5.02,15.17-8.81,9.47,3.06,6.65,10.53,13.08,23.66,18.24,36l24.64,62.03c3.96,5.96,6.9,11.89,8.81,17.8-5.51,6.01-11.45,11.19-16.99,16.99.19-2.1,1.64-5.76,1.01-7.65-4.64-14.06-11.95-26.99-18.2-40.72-1.26-2.76-.07-6.59-.77-7.73-1.32-2.13-6.51-3.25-8.34-6.85-.99-1.95.36-4.99-.73-7.54-6.69-15.64-10.78-27.36-19.51-41.79-1.45-2.4-2.39-8.07-2.75-8.33-1.03-.75-8.64,4.72-10.18-1.68,5.13-4.5,10.02-9.24,15.29-13.59Z"/>
    <path class="cls-43" d="M454.94,127.76c6.63-3.99,8.67,5.37,10.77,10.24.88,2.05,1.76,4.38,2.6,6.44,1.1,2.72,2.49,11.78,2.86,12.29,1.1,1.51,3.99,1.42,4.16,1.64.75.98-3.14,3.04-3.14,4.21-.02,3.2,7.96,5.55,8.24,5.98.63.97-2.92,2.3-2.67,5.16.17,2.02,4.47,23.08,5.15,25.42,1.17,3.99,6.45,8.22,7.41,13.16,1.23,6.37-3.47,10.14,4.57,15.67,3.28,2.25,1.74-8.1,5.92.01-4.13,11.76-7.99,22.8-13.59,33.97-4.88,2.88-5.89-1.6-4.07-5.99-1.86-.98-3.07-2.28-3.85-4.23-6.73-16.92-13.59-44.17-15.79-62.19-.21-1.69.63-4.59,1.19-6.3-.97-.03-3.42-1.2-3.74-1.76-5.29-9.26-7.56-16.8-10.41-27.09-6.82-.38-9.89-2.46-9.21-6.23,4.61-6.3,9.5-13.72,13.59-20.38Z"/>
    <path class="cls-51" d="M426.06,385.94c6.85-.32,11.76,4.42,14.7,14.22l7.27,17.31c12.86,9.39,17.26,31.37,18.8,46.6-9.39,7.85-17.08,12.21-27.18,18.68-3.66,2.23-6.29-.14-7.89-7.11-6.73-7.12-36.68-49.52-34.01-59.94.61-2.37,3.8-7.19,6.21-5.99,8.61-7.98,18.06,2.94,16.18,13.65,4.06,8.34,8.92,16.33,14.58,23.98-.43,1.4,9.66,21,11.05,16.65,1.11-3.48-4.53-30.59-7.24-34.82-7.01-3.39-10.48-9.98-10.43-19.78-5.31-.72-7.63-4.79-8.98-9.55-4.11,2-6.68.58-4.97-3.72,3.92-3.41,7.73-7.1,11.89-10.19Z"/>
    <path class="cls-9" d="M524.59,265.34c10.57,2.6,3.49,7.55,4.35,13.76.47,3.44,4.3,7.81,5.17,11.21,1.8,7,2.28,11.25,4.83,19.05,2.38,7.3,4,25.32,7.92,31.44,2.52,3.94,5.52.1,4.91,9.46-.56,8.69-6.28,20.87-10.19,28.87-10.25,1.45-12.56-2.09-11.52-12.3-2.65-3.51-3.04-6.61-1.14-9.3-5.16-7.81-6.81-15.4-4.94-22.75-4.11-9.24-8.44-18.62-13-28.14-4.25-1.17-6.5-3.06-6.77-5.65,6.9-10.38,14.97-24.44,20.39-35.67Z"/>
    <path class="cls-28" d="M381.88,212.69c3.97-3.71,8.12-7.14,12.44-10.29,1.39.3,14.7,21.24,12.26,24.22,6.16,3.69,9.04,9.85,8.43,16.98l4.7,2.86c5.65,24.97,12.39,50.56,25.59,72.91-1.88,3.07-3.2,6.01-3.96,8.82-2.98,3.54-6.08,5.76-8.49,8.49l-3.74-.14-48.66-116.72c-2.19-.04-3.26-1.6-3.66-3.73.68-3.24,3.25-2.57,5.1-3.4Z"/>
    <path class="cls-8" d="M290.14,301.01c5.96-1.5,1.85,1.28,1.7,1.03-1.42-2.45,10.61-8.89,7.6,3.64l6.17,16.67c15.44,30.95,30.78,62.56,45.18,93.29l-1.19,4.26c-.43,3.71-3.92,7.48-6.8,10.19-.44.66-.65,1.94-1.7,3.4-7.92,7.09-10.95,2.97-9.1-12.37-19.67-31.02-35.83-64.17-48.48-99.44-3.63,1.6-5.58-1.42-3.58-5.38,3.27-5.14,6.51-10.43,10.19-15.29Z"/>
    <path class="cls-54" d="M441.35,148.14c2.33,1.99,9.72,2.08,11.48,3.82,2.64,2.62,5.84,21.14,8.82,25.54,1.36,2.01,5.12,2.55,6.03,4.48.61,1.29-1.29,7.47-.81,11.04.87,6.38,14.39,56.29,16.19,58.81.9,1.25,4.21,1.15,4.21,2.61,0,1.83-3.7,5.99-.06,7.5-3.41,6.8-7.89,13.86-11.89,20.38-.52.83-1.09.8-1.7,0-1.48-.48-1.46-1.05,0-1.7l-2.7-3.53c-.56-17.67-5.79-35.04-15.69-52.12.35-11.73-2.53-22.25-8.65-31.54l-.14-7.93c-2.75-.21-4.06-2.07-3.94-5.59-7.95-9.17-10.04-17.5-6.25-24.98,1.7-2.19,3.46-4.56,5.1-6.79Z"/>
    <path class="cls-43" d="M274.85,329.88l1.7,1.69c-3.98,6.9-4.48,13.31-1.52,19.23,7.23,8.37,11.49,17.37,12.79,26.99,4.44,4.2,7.87,9.98,10.28,17.34l1.04,13.99c5.93,1.15,7.65,5.64,5.17,13.48,10.07,13.16,15.54,25.29,16.41,36.37-2.67,3.78-8.64,11.02-10.19,13.59-1.6-3.06-5.92-4.21-7.3-7.3-1.53-3.42,2.34-4.3,1.43-6.29-4.57-9.89-10.76-20.47-14.93-31.11-.97-2.47.76-5.04.17-5.91-.66-.97-4.52-1.36-4.87-2.93-.66-2.93,6.01-3.16-1.92-15.07-4.63-6.95-11.99-18.43-15.79-26.63-2.09-4.51-2.69-10.22-2.67-15.16l-5.08-3.4c5.18-14.2,8.34-19.76,15.29-32.27,4.54.22,4.22,1.75,0,3.4Z"/>
    <path class="cls-25" d="M434.55,258.55l4.63,2.73c3.25,13.7,8.32,27.11,13.28,39.23,1.57,3.85,2.14,6.38,2.48,10.69-4.43,5.78-8.9,11.42-13.59,16.99-3.87-1.28,1.36-4.39.95-6.88-.72-4.36-8.49-15.26-10.32-20.3-3.76-10.35-8.38-25.31-11.59-35.67-1.02-3.3-1.65-14.53-3.11-16.69s-6.36,0-6.51-.3c-.24-.51,1.73-5.47.61-9.81-2.64-10.15-8.1-7.9-9.12-8.88-.63-.6,2.04-4.85,1.45-7.28-1.13-4.63-12.37-10.87-9.96-18.19-4.73,3.72-6.33,6.01-11.88,8.49,5.76-7.8,13.31-13.89,20.39-20.38l4.35,1.45c12.19,20.58,21.5,42.17,27.93,64.79Z"/>
    <path class="cls-25" d="M308.83,278.93l3.74-.05c19.13,39.89,38.27,79.81,57.42,119.74l-1.7,4.31c-3.83,3.95-8.43,8.15-11.89,11.89-7.61,4.4-6.41-3.01-2.33-7.34-21.61-35.38-39.01-72.5-52.2-111.37-4.45-1.7-3.27-5.73,3.56-12.08,1.04-1.72,2.2-3.49,3.4-5.1Z"/>
    <path class="cls-33" d="M376.79,216.08c.26-.15,2.61,1.35,5.08-1.7l50.98,122.29c-1.76,1.98-4.12,5.57-6.8,8.49-5.52-3.23-10.52-12.77-12.88-18.7-11.37-28.6-21.65-59.71-37.19-86.74-1.04-1.81-.38-4.67-1.37-6.22-.77-1.21-4.29-1.64-4.65-3.02-.65-2.48,4.47-4.38,3.4-7.62l-8.48,3.4c3.88-3.2,7.95-7.92,11.89-10.19Z"/>
    <path class="cls-41" d="M422.66,173.62c2.85-4.02,4.89-5.66,8.71-1.63.83.87,9.28,19.22,10.19,21.67.57,1.52,7.03,21.02,6.55,22.1-.34.77-.97,1.41-1.68,2.02l5.3,4.36c7.92,16.12,14.34,34.21,17.46,51.62l4.42,6.86v1.7c-2.07,2.75-3.2,5.58-3.4,8.49-1.54,2.34-3.92,3.4-5.1,5.1-4.43,5.16-8.58,1.6-11.14-3.54-7.68-28.22-18.33-55.73-29.67-82.73l-2.3-13.97c-9.78-3.52-14.62-7.38-4.61-14.12.31-.21-4.86,5.82-4.96.56.97-2.61,2.97-3.66,5.1-5.1,1.26-1.58,2.95-3.43,5.1-3.4Z"/>
    <path class="cls-56" d="M279.95,316.3c.68,3.71,4.76,2.24,5.13,2.63,3.9,4.05,3.98,10.02,5.45,13.06,11.56,23.87,21.65,47.1,33.08,70.52,2.04,4.17,9.98,13.81,11.58,17.5,1.25,2.9-1.48,13.24.85,15.18,1.15.96,4.15-5.52,5.08-1.7-2.63,3.64-6.16,7-8.49,10.19-1.76.47-3.58,1.39-3.4,3.4-.48.66-1.29,1.13-1.7,1.7-6.67,8.42-12.33,2.43-5.11-4.66l-.07-8.53c-9.86-14.43-21.83-34.01-22.38-51.66-5.03-2.62-9.68-5.12-5.96-11.44l-9.98-16.81c-1.91-9.31-5.2-17.71-9.17-25.81.31-.77-.21-2.36,0-3.4,1.82-3.28,2.44-6.01,5.1-10.19Z"/>
    <path class="cls-28" d="M315.63,272.13c5.05.07,9.07,4.21,12.06,12.43,15.61,35.23,32.98,69.22,52.11,101.96-2.11,2.27-1.98,3.77.39,4.51-3.91,3.97-8.05,7.93-11.89,11.89l-59.46-123.99c2.54-3.4,4.81-4.53,6.8-6.79Z"/>
    <path class="cls-36" d="M274.85,329.88c10.05,2.8,9.55,19.5,12.75,25.48,2.04,3.81,2.17,1.62,5.16,8.31,1,2.25,5.31,8.37,5.25,9.58-.07,1.33-2.6,2.73-2.61,3.35,0,1.56,6.31,3.52,7.55,5.96.83,1.65-.67,5.49.66,9.3,3.74,10.71,11.56,25.46,16.78,36.02,1.26,2.54,4.73,4.88,5.16,6.8.13.57.26,9.54.29,11.42.02,1.08-5.16.88-3.42,5.22l5.1-2.54c-2.12,2.97-4.41,6.81-6.8,10.19-2.33-2.08-2.01,2.21-2.94-2.09-.88-4.03-1.39-7.42-3.24-11.28-2.47-5.14-12.77-19.52-13.5-22.22-.82-3.07,2.12-8.76.86-10.14-.47-.51-4.55.04-5.96-1.73-.61-.77.69-13.45-2.41-19.19-1.08-2-4.38-2.09-4.62-3.74-.22-1.47,2.04-3.94,1.02-5.73-.3-.54-3.38-1.09-4.76-3.04-2.12-2.98-.34-6.21-1.4-8.69-2.82-6.63-10.8-15.74-13.5-22.22-3.73-8.98-.11-6.14.64-7.44.55-.95-1.05-3.11-.4-4.81,1-2.63,3.45-4.51,4.35-6.78Z"/>
    <path class="cls-51" d="M332.62,255.15l.88,5.12,4.2-1.75c.47,3.68,1.85,9.07,3.57,12.24,6.22,11.46,16.67,26.49,22.35,37.44,2.12,4.09,3.24,14.85,5.14,17.82.95,1.48,5.84,2.45,7.07,5.49.69,1.72-1.01,4.57.48,8.06.44,1.03,10.86,18.33,11.62,19.15,1.88,2.01,5.34,5.43,7.5,7.6.26.26,5.81,1.61,6.84,2.62-3.93,4.09-7.96,7.89-11.89,11.89-1.81,1.41-3.5,2.07-5.08,1.96-5.56-.89-39.47-67.77-39.99-79.56-8-12.15-14.49-24.79-19.48-37.9-2.43,2.33-3.38,1.29-1.7-1.7,2.88-2.9,5.5-5.64,8.49-8.49Z"/>
    <path class="cls-31" d="M305.43,284.02c-1.01,1.68-5.41,8.07-5.1,8.46.15.18,3.17.05,4.22,1.69.43.68,4.52,12.83,5.27,15.19,9.07,28.46,27.08,58.8,41.4,86.3,1.19,2.28,6.55,11.15,6.66,11.82.59,3.62-9.52,7.83-1.48,7.33-1.17,1.26-2.52,2.41-3.4,3.4-1.18,1.56-2.31,2.13-3.4,1.7-1.35-2.71-4.24-4.49-5.46-7.28-4.01-9.14-6.97-19.27-11.54-28.89-11.81-24.87-28.11-49.9-36.46-77.46-.54-1.79,1.27-4.75.79-5.26-3.4-3.61-3.4,8.76-6.79-.01,4.35-5.74,9.68-12.48,15.29-16.99Z"/>
    <path class="cls-13" d="M482.12,452.18c-2.5,2.26-3.96,5.99-8.49,6.79-3.83,5.02-5.3-4.95-5.97-9.83,1.51-7.79-1.28-19.24-4.76-26.14-9.51-11.16-17.49-26.57-23.67-40.46-3.1,1.61-5.79,1.61-8.07,0,6.29-8.4,14.49-14.98,22.09-22.08,4.2,2.07,6.67,6.68,7.42,13.82,9.26,16,17.29,32.62,24.08,49.88,3.45,11.16,5.49,18.9-2.62,28.02Z"/>
    <path class="cls-31" d="M412.46,182.11c.23-.13,3.01,1.07,5.08-1.7,1.44,2.86-3.72,4.43-2.66,6.78,3.24,7.17,8.99,3.08,9.46,3.4,1.05.71,2.31,18.96,5.15,24.22,7.39,13.69,8.96,18.18,12.7,32.62,1.95,7.53,9.08,21.14,11.94,29.74,2.07,6.23.28,19.16,10.99,18.73-3.54,5.1-5.97,9.78-10.19,15.29l-5.12-.86c3.28-9.52-.94-6.5-2.23-9.67-5.09-12.42-7.85-28.94-13.04-42.12-2.44-11.93-6.74-23.45-12.89-34.54l1.11-5.7c-6.95-6.45-11.55-13.79-13.77-22-3.27-.64-5.81-2.32-5.03-5.7,2.95-2.67,3.97-5.91,8.49-8.49Z"/>
    <path class="cls-19" d="M463.43,350.27c6.42-4.76,8.19,8.26,8.91,13.72,7.01,6.64,10.35,13.83,9.38,23.52,8.89,2.74,9.37,14.63,9.03,22.75l3.21,3.38c1.69,7.54,3.97,14.72,6.85,21.55-6.41,6.5-12.1,11.03-18.69,16.99l2.46-10.99c-.89-16.74-9.35-30.87-16.37-45.59-3.82-8.01-7.45-13.55-10.64-19.93-1.78-3.56-2.46-11.03-4.33-15.21,3.54-3.31,5.87-6.6,10.19-10.19Z"/>
    <path class="cls-43" d="M504.2,301.01c13.04,1.77,9.23,5.64,13.07,13.2,1.48,2.91,6.27,8.9,8.12,12.4,1.21,2.29-2.35,6.49,4.3,6.71-9.14,6.96,1.47,16.92,3.39,26.37.24,1.16-3.89.16-3.39,1.61,6.67,2.94,2.77,13.95,3.38,14.44.83.66,7.2-1.71,8.5,3.41-2.99,6.13-6.67,11.25-10.19,16.99l-3.84-1.14c-9.54-24.75-18.41-50.04-26.63-75.87-3.8.75-7.24.94-10.31.58,3.43-6.83,9.55-12.6,13.59-18.68Z"/>
    <path class="cls-9" d="M330.92,487.85l3.51,1.67c1.61,8.59,7.42,16.04,13.35,22.21.09,9.69,5.8,15.32,17.12,16.89.81-4.75,1.97-5.9,5.1-1.7.81.52.78,1.09,0,1.7-9.76,8.14-22.23,17.78-30.58,27.18l-14.2-33.38c-10.33-10.36-4.97-4.44-11.28,1.11-1.54-2.58.21-5.88,1.7-8.49,2.15-8.31,10.4-19.62,15.29-27.18Z"/>
    <path class="cls-32" d="M414.16,396.13c1.58,4.45,5.91-2.43,6.77-1.69.42.36,2.04,8.18,4.29,10.21,2.05,1.84,5.34,1.37,5.85,1.85.6.57.56,10.58,3.65,15.79,2.03,3.43,5.57,3.74,6.3,4.74.18.25,1.45,3.18,1.98,4.32,4.57,9.75,4.61,25.11,6.83,36.13-13.63,1.35-12.96-9.55-18.06-18.45-3.47-6.04-11.63-16.39-14.07-22-3.82-8.81,5.05-15.65-13.73-17.3-.59-.62-.59-1.75,0-3.4,3.32-2.98,6.19-6.71,10.19-10.19Z"/>
    <path class="cls-18" d="M392.08,418.21c.78,6.15,3.44,11.7,7.97,16.64,4.12,11.33,9.2,22.04,15.23,32.13,12,9.02,15.59,17.1,10.78,24.26-2.75,1.75-5.7,3.34-8.49,5.1-6.84,1.14-18.37-10.27-17.04-18.23l-4.87-1.7c-4.88-11.19-10.43-21.62-16.67-31.27-5.4-.85-8.39-3.03-8.99-6.56,1.82-3.94,13.05-14.2,16.94-17.96,1.87-1.81,4.77-2.06,5.14-2.42Z"/>
    <path class="cls-48" d="M431.15,382.54c3.21-2.08,7.13-3.37,10.18-6.79.37,7.23,5.9,16.9,9.82,23.36,5.48,9.03,4.66,3.7,7.44,14.49.83,3.21,6.17,5.32,7.37,8.03.39.9,5.26,16.59,5.67,18.26.87,3.5-1.75,7.02-.03,11.61,1.26,3.36,3.6,2.22,3.71,2.41.69,1.15-2.84,3.01-3.35,4.22-.39.92,1.71.76,1.67.84-1.75,3.67-4.81,3.44-6.8,5.1-8.09-1.84-2.52-3.85-4.05-10.23-.61-2.54-8.96-25.76-9.9-27.68-1.06-2.17-7.5-6.16-7.71-6.69-3.51-8.94-7.88-19.74-12.7-27.99-.76-1.3-5.97-2.19-6.41-5.53,2.27-1.68,3.02-2.05,5.1-3.4Z"/>
    <path class="cls-53" d="M490.61,319.69c1.74-1.46,4.97-4.68,5.29-4.9.67-.45,3.7,2.21,4.76,1.41.8-.61-1.09-4.03,1.82-3.28,3.52,9.29,6.74,18.73,10.13,28.08,4.15,11.45,4.76,15.01,7.25,26.59,1.8,8.39,9.43,19.75,11.52,28.54-1.34,2.19-3.61,4.58-5.1,6.79-2.65,3.34-5.08,2.82-7.29-.72-6.28-10.07-12.87-33.94-15.7-46.21-4.84-5.49-7.43-12-10.09-18.8-4.86,1.76-11.29-2.56-11.09-7.31,2.33-4.49,4.66-6.98,8.49-10.19Z"/>
    <path class="cls-26" d="M475.32,340.08c.63-1.43,3.37-6.52,4.08-6.72.66-.19,1.36-.24,2.07-.23,4.69.08,33.74,48.77,28.22,57.59,5.94,7.66,8.08,16.82,6.4,27.48-4.09,5.26-7.26,7.01-10.19,10.19-6.1,5.88-6.85-3.52-6.36-9.17-8.57-24.49-17.55-49.01-26.93-73.55l2.72-3.91c-1.48-.56-1.48-1.13,0-1.7Z"/>
    <path class="cls-11" d="M475.32,341.77c1.27,10.94,16.53,43.39,21.23,57.79,2.94,9,8.15,15.72,5.96,27.15l3.38,1.69c-1.15,1.25-2.04,3.69-5.1,6.79-12.96-3.17-2.63-22.46-15.3-22.1,4.72-2.45.28-19.68-1.77-21.22-1.16-.86-4.03-.38-4.71-1.12-1.31-1.43-.43-9.95-1.12-12.47-1.57-5.65-5.75-8.95-8.55-12.81-.67-.92-.99-12.62-5.92-15.21,1.19-.99,2.16-2.52,3.4-3.4,2.33-2.25,5.39-5.2,8.49-5.1Z"/>
    <path class="cls-54" d="M351.3,460.67c4.73,0,6.41,4.06,5.04,12.17,8.5,7.18,12.62,15.09,12.33,23.73l5.31,3.39c.91,1.84,6.95,12.01,7.68,12.2,3.89-3.35,8.65-4.38,8.71,1.17-4.54,2.82-9.01,5.67-13.59,8.49-1.9,2.58-4.17,4.27-6.8,5.1-.95.58-3.38.75-5.1,1.7-2.45-.95-3.97-3.64-4.56-8.07-10.52-7.97-15.84-21.79-19.56-34.08-4.97,4.15-9.22,2.17-6.46-3.71,5.25-7.75,11.13-14.82,16.99-22.08Z"/>
    <path class="cls-48" d="M403.97,409.71c-.28.44-1.9.7-2.31,1.66-3.22,7.64,6.87,23.84,10.84,31.05,5.99,10.88,13.99,21.75,21.55,30.61,2.26,2.66,2.06,7.77,5.59,9.7-4.49,2.88-9.1,5.64-13.59,8.49.27-13.59-9.88-15.93-16.01-25.59-4.34-6.85-9.22-21.73-12.97-29.17-2.32-4.6-11.05-9.25-4.99-18.27,4.08-3.95,7.56-8,11.89-11.89l1.65.84c-.75.73-1.11,1.71-1.65,2.56Z"/>
    <path class="cls-34" d="M482.12,329.88c1.22,4,5.14-4.32,8.48-5.1l-3.38,8.47,5.08,1.74.03-5.12c1.47-1.84,7.67,15.07,8.7,17.23,1.77,3.71,8.87,7.93,4.85,14.16l3.41-.84c-3.43,8.31.61,7.74,1.13,9.04,3.8,9.42,7.39,18.63,10.74,29.13,1.21,3.78,1.64,2.99,5.13,4.32-3.65,5.45-5.79,9.63-10.19,15.29-6.33-3.13-2.27-12.06-3.46-17.47-.14-.63-5.71-5.51-6.62-10.66-.67-3.78.72-8.39-.07-11.45-.44-1.71-13.99-25.93-16.29-29.95-1.01-1.77-9.29-13.4-10.09-13.69l-4.24,5.09v-1.7c1.94-2.16,2.49-7.27,6.8-8.49Z"/>
    <path class="cls-11" d="M369.99,440.29c6.01,10.28,11.89,21.32,14.97,33.4l10.3,8.2c.64,6.36,3.07,12,7.29,16.92,4.27-3.31,10.94-6.81,9.92.92-5.92,3.67-13.19,6.79-18.69,10.19-7.5,4.38-12.17-3.05-11.8-10.38-7.19-3.48-11.5-10.7-12.93-21.66l-4.24-2.06c-.46-4.72-2.54-8.97-4.97-12.9-7.24,2.48-6.7-1.73-5.14-7.34,4.63-5.55,9.3-11.1,15.29-15.29Z"/>
    <path class="cls-10" d="M369.99,438.59c4.77,2.13,9.66,1.75,13.63,5.9,5.59,5.86,10.15,25.74,14.03,29.29,1.17,1.07,4.45.53,5.52,2.07,1.43,2.07.17,6.02,1.66,8.58.94,1.61,10.93,8.65,12.73,11.91-1.73,1.09-3.36,2.32-5.1,3.4-2.55-4.36-7.46,2.85-9.34,2.84-4.38-.02-8.13-9.26-10.01-13.04-.67-1.35.97-3.66.33-4.66-.93-1.47-10.87-8.61-11.22-9.24-1.32-2.4-4.92-14.97-6.54-18.35-3.09-6.45-7.87-8.07-5.7-16.98.14-.58-.19-1.29,0-1.7Z"/>
    <path class="cls-48" d="M325.82,265.34c5.85,2.32,2.37,2.13,5.3,7.4,3.07,5.53,16.41,25.92,17.49,29.92.63,2.34-1.37,4.91-.43,6.49,12.32,20.69,20.13,46.53,35.69,67.17,1.88,2.49,2.85,4.53,6.52,4.52-1.7,1.73-3.42,3.39-5.1,5.1-2.65,2.31-4.88,2.58-6.69.81-19.5-36.94-38.5-74.59-57-112.97-5.22-2.14.41-8.05,4.23-8.43Z"/>
    <path class="cls-42" d="M354.7,455.57c3.12.41-1.35,5.37.88,5.12,1.48-.17,3.08-1.33,4.82-1.13,6.71.79,2.91,2.62,3.79,4.61,1.73,3.92,4.56,5.13,2.42,10.04,1.33.19,4-.5,4.75.26s5.14,17.27,6.97,19.47c2.16,2.6,6.39,1.99,6.93,2.5.64.61-2.1,13.2,8.52,13.48-.55.34-1.56,2.25-3.4,3.4-3.28-4.39-5.47,3.37-9.33,3.45-1.98.04-3.79-7.39-4.16-7.65-2.13-1.49-5.97-1.96-8.59-2.62l3.37-1.68c1.57-4.85-4.13-3.14-6.03-6.82-1.28-2.48.7-5.33-.3-7.99-1.23-3.28-10.7-13.67-12.12-16.06-.35-.6.66-10.03-1.93-13.28,1.26-1.57,2.11-3.55,3.4-5.1Z"/>
    <path class="cls-5" d="M325.82,265.34l-5.1,5.06c5.43-.02,3.55,3.75,5.05,5.98,12.02,17.87,23.1,42.83,28.11,60.17,2.61,9.04,17.55,29.02,21.04,35.43,2.58,4.74,2.63,13.35,10.36,13.96-1.69,1.72-3.42,3.4-5.1,5.1-11.72,3.63-3.08-3.79-3.5-5.74-.3-1.42-3.23-2.78-4.11-4.55-2.84-5.73-3.99-7.66-6.97-13.37-11.42-21.92-22.99-45.24-33.53-66.36-4.94-9.9-7.98-21.06-16.46-28.87,3.1-3.53,5.48-5.46,8.49-8.49.65.37,1.21,1.5,1.7,1.7Z"/>
    <path class="cls-43" d="M334.32,482.75c4.01,7.5,2.9.14,4.23-.05,6.9-.95,5.59,6.19,7.87,10.88,1.52,3.13,8.26,16.62,9.31,18.07,4.31,5.96,10.01,4.18,9.17,16.96-.48.26-.97,2.99-2.47,2.99-1.28,0-2.89-1.98-4.31-2.21-1.9-.3-4.43.75-4.81.5-.49-.32-.77-2.54-2.16-3.66-1.29-1.04-3.99-.67-4.62-1.34-1-1.05-.37-9.3-1.97-12.09-.8-1.4-2.86-1.13-6.51-7.45s-6.9-9.4-7.13-17.52c1.11-1.71,2.25-3.41,3.4-5.1Z"/>
    <path class="cls-17" d="M446.44,185.51c2.05,7.93,3.54,15.95,4.47,24.04,7.19,5.12,1.95,13.25-4.47,8.23-6.28-17.15-5.49-20.72-16.09-37.49-1.88-2.98.55-10.6-7.69-6.68-.76-.52-.74-1.09,0-1.7,4.48-5.65,9.2-11.33,13.59-16.99-.9,10.88,6.14,15.86,9.42,23.78,1.02,2.47.3,5.62.78,6.79Z"/>
    <path class="cls-16" d="M403.97,190.61c1.09,3.11,7.79,1.03,8.5,1.69.44.41-.46,5.3,0,7.32.65,2.77,13.08,16.51,13.42,17.61.88,2.81-1.66,6.03-.85,9.14s4.35,4.76,5.27,6.85c1.25,2.86-.62,5.36.36,7.89,2.15,5.56,7.98,7.69,3.87,17.45-6.1-15.5-15.22-32.46-22.57-47.93-2.79-5.86-7.18-11.97-9.71-18.32.59-.54,1.1-1.16,1.7-1.7Z"/>
    <path class="cls-35" d="M514.4,171.92c-4.4-7.24-.19-16.69.08-24.55.41-11.9-.93-21.87-1.78-33.2.48-1.48,1.05-1.46,1.7,0,1.14,20.67,2.21,36.62,0,57.75Z"/>
    <path class="cls-7" d="M565.36,267.04c-.04,11.94-.36,23.83-1.7,35.67-3.1-12.63-.42-27.48-1.68-40.76l3.38,5.09Z"/>
    <path class="cls-38" d="M563.67,243.26c-.12,0,.25,1.99-1.68,1.7,2.11-12.27-5.73-25.84-1.72-37.37,1.82,11.72,3.84,23.72,3.4,35.67Z"/>
    <path class="cls-37" d="M247.67,443.68c-.5.63-1.08,1.19-1.7,1.7-.06-7.29-.34-14.8,0-22.08h1.7c1.49,6.63,1.51,13.74,0,20.38Z"/>
    <path class="cls-29" d="M342.81,430.1c2.1-3.1,3.45-7.06,6.8-10.19.75-.7,2.44-1.03,3.4-1.7-2.28,2.55-4.53,10.18-10.19,11.89Z"/>
    <path class="cls-50" d="M295.24,630.52c-.86,2.69,1.74,8.94-3.38,10.19-.09-3.38.05-6.8-.02-10.19h3.4Z"/>
    <path class="cls-39" d="M475.32,340.08c.05.56-.06,1.14,0,1.7-2.04,2.74-6.6,3.75-8.49,5.1,1.45-4.03,6.23-5.96,8.49-8.49v1.7Z"/>
    <path class="cls-46" d="M553.47,177.02c-.85,1.15-2.82,2.29-3.4,3.4l.02-13.58h1.66c-.82,4.04.72,6.76,1.72,10.18Z"/>
    <path class="cls-12" d="M514.4,114.17h-1.7c-.3-3.96-1.07-11,1.7-13.59.56,5.33-.26,8.83,0,13.59Z"/>
    <path class="cls-4" d="M487.22,37.74c3.44,3.12,1.15,9.43,1.68,13.58h-1.66c-.09-2.25.06-4.53-.02-6.79s.04-4.53,0-6.79Z"/>
    <path class="cls-20" d="M475.32,282.33c-1.7,2.77-3.33,5.81-5.1,8.49l-1.63-.94c.5-3.04,1.94-6.25,5.03-7.56h1.7Z"/>
    <path class="cls-14" d="M313.93,523.51c-.8.7-2.42,1.03-3.4,1.7,1.5-3.07,1.46-7.66,5.1-10.19-.67,2.6-.53,5.83-1.7,8.49Z"/>
    <path class="cls-1" d="M247.67,467.46c-.21-2.68-.12-5.79,0-8.49.08-1.69-.08-3.4.02-5.09h1.66c-.53,4.15,1.75,10.46-1.68,13.58Z"/>
    <path class="cls-45" d="M249.37,413.11c-.86-.28-2.34.19-3.4,0,.18-2.33,1.28-6.91,1.7-10.19,3,1.91,1.45,6.99,1.7,10.19Z"/>
    <path class="cls-27" d="M543.28,212.69c3.25,2.92,2.84,8.22-1.7,6.79.6-2.16,1.14-4.59,1.7-6.79Z"/>
    <path class="cls-43" d="M376.79,521.82c-1.32,3.35-4.29,4.7-6.8,6.79v-1.7c1.38-.85,3.57-3.11,6.8-5.1Z"/>
    <path class="cls-49" d="M531.39,248.36c3.51,1.61.07,5.82-.02,8.49l-1.68-1.69c.84-1.97.89-4.73,1.7-6.79Z"/>
    <path class="cls-52" d="M477.02,88.7c-1.68,10-2.93,5.02-3.4,5.1.66-2.23.98-4.59,1.7-6.79,1.36-.44,1.58,1.7,1.7,1.7Z"/>
    <path class="cls-6" d="M288.45,525.21l-1.66-.94c-1.53-3.86,2.98-5.1,3.36-5.86.37,2.64-.99,4.59-1.7,6.79Z"/>
    <path class="cls-21" d="M488.91,5.47c0,1.79-.56,2.92-1.7,3.4-2.79-1.38-1.56-5.76-1.68-8.48.87-1.89,2.96,3.82,3.38,5.09Z"/>
    <path class="cls-23" d="M303.74,608.44c-.97,1.88-.34,5.42-3.4,6.79.67-2.59.71-5.77,1.72-8.49l1.68,1.69Z"/>
    <path class="cls-47" d="M512.7,180.42c-.16,2.24.24,4.58,0,6.79-2.82-1.45-1.51-5.84-1.68-8.49,1.93-.3,1.56,1.7,1.68,1.7Z"/>
    <path class="cls-55" d="M422.66,173.62c-.28.13-4.18,2.78-5.1,3.4.56-2.73,4.08-3.81,5.1-5.1v1.7Z"/>
    <path class="cls-2" d="M490.61,12.26c-.72-.69-2.46-1.01-3.4-1.7.02-.56-.04-1.14,0-1.7.11-1.46.07-2.87,1.7-3.4.73,2.2,1.07,4.56,1.7,6.79Z"/>
    <path class="cls-30" d="M560.27,316.3c-.27,1.57.29,3.55,0,5.1-4.42-4.4-.08-13.42,0-5.1Z"/>
    <path class="cls-36" d="M332.62,443.68c-1.21,1.65-2.85,2.65-3.4,3.4-3.56-.62,1.4-3.64,2.56-5.06l.84,1.67Z"/>
    <path class="cls-22" d="M286.75,528.61c-.5,1.27.24,3.78-1.7,5.1.03-.37-1.48-3.91.04-6.82l1.66,1.72Z"/>
    <path class="cls-44" d="M247.67,443.68v-20.38c2.81,3.62,2.87,16.78,0,20.38Z"/>
    <path class="cls-20" d="M473.62,280.63c-9.67.93-8.57-14.08-10.69-20.74-4.52-14.19-11.36-28.08-16.49-42.11l6.79-3.37c-8.83-1.03-4.66-8.98-6.93-15.73-.49-1.47-3.28-1.37-3.2-2.05.29-2.45,4.31-7.23,3.33-11.11,2.63,6.46,9.28,16.35,10.82,22.46,1.24,4.91-.7,10.65,1.54,17.01,6.12,17.37,20.22,34.9,14.83,55.65Z"/>
  </g>
  <text class="cls-3" transform="translate(0 815.43)"><tspan x="0" y="0">za</tspan><tspan class="cls-15" x="256.35" y="0">r</tspan><tspan x="359.1" y="0">fuel</tspan></text>
</svg>