<svg xmlns="http://www.w3.org/2000/svg" viewBox="0 0 500 600">
  <!-- Gold flame logo -->
  <path d="M330,51.2c-18.8,33.3-37.5,66.7-56.2,100c-10.3,22.6-24.3,51-35.5,75.2c-4.1,8.9-2.3,17.5,3.8,23.6
  c6.2,6.2,15,8.4,23.9,3.8c25.5-12.5,50.6-24.7,76.5-36.2c10.2-5.4,17.4-1.7,24.7,3.7c26.4,24.7-41.3,84.1-53.2,103
  c5.3-21.7,8.8-44.4,8.8-66.7c0-5.3-0.4-10.9-2.1-15.9c-1.6-4.6-4.7-8.8-8.9-11.1c-3.2-1.8-6.9-2.4-10.6-2.4
  c-9.2,0-18.6,3.5-28.5,7.3c-19.6,10.7-37.8,22.9-56.9,34.2c-6.8,4-13.9,8.1-18.6,14.2c-7.6,9.9-7,23.7-0.1,33.8
  c5.8,8.5,14.7,14.2,23.5,19.1c17.3,9.7,35.6,17.3,53.4,25.9c12.1,5.8,24.3,11.7,36.4,17.5
  c-25.1-26.7-47.5-58.7-55-94.6c-2.9-13.8-2.8-28.9,4.1-41.2c7.2-12.9,20.9-20.5,35.1-24.4c20.8-5.7,44-3.4,63.3,6.6
  c18.8,9.8,32.8,26.1,40.6,45.8c7.2,18.2,9.1,38,7.9,57.3c-2.8,45.4-21.4,88.5-47.5,124.8" fill="#E6AD00"/>
  
  <!-- Dark gray text "zarfuel" -->
  <path d="M123.5,422.7l307.5,0.6c1.3,0,2.4,1.1,2.4,2.4v35.7c0,1.3-1.1,2.4-2.4,2.4H91.3c-1.3,0-2.4-1.1-2.4-2.4v-35.7
  c0-1.3,1.1-2.4,2.4-2.4h32.2 M123.5,461.2v46h35.7v-46H123.5z M188.1,461.2c-4.9,10.9-7.7,21.5-8.4,32
  c-0.4,6.7,0.6,11.7,2.9,15.1c2.3,3.4,6.3,5.1,11.7,5.1c5.8,0,10.9-1.7,15.4-5.1c3.4-2.6,6.5-6.1,9.4-10.6v14.6h33.7v-103h-35.7v36.6
  c-2.8-3.5-6.2-6.2-10.2-8.2c-5.4-2.6-11.8-3.9-19.3-3.9c-10.4,0-18.7,2.9-24.8,8.6c-6.1,5.7-9.1,13.6-9.1,23.5
  c0,8.1,2.4,14.8,7.3,20.1c4.9,5.3,11.1,7.9,18.6,7.9c2.6,0,5.4-0.5,8.5-1.4c3.1-0.9,5.9-2.2,8.4-3.9
  C193.5,480.1,190.4,471.2,188.1,461.2z M256.5,507.2h35.7v-50c0-8.4,1.9-14.3,5.7-17.7c3.8-3.4,9.6-5.1,17.3-5.1h4.3v-34.8
  c-7.2,0-13.6,1.5-19.2,4.4c-5.6,2.9-9.8,7.3-12.7,13.1v-16.4h-31.1V507.2z M352.4,461.2c0-9.3-2.9-16.9-8.7-22.9
  c-5.8-6-13.8-9-24-9c-9.9,0-18.4,3-25.5,9c-7.1,6-10.6,13.5-10.6,22.7c0,9.3,3.5,16.9,10.4,22.9c6.9,6,16.1,9,27.4,9
  c16.8,0,27.3-6.5,31.5-19.6h-17.9c-2.2,4.1-6.1,6.1-11.9,6.1c-3.7,0-6.7-0.9-9-2.8c-2.3-1.9-3.6-4.4-3.9-7.6h42.1
  C352.3,466.5,352.4,463.9,352.4,461.2z M310.3,456c0.3-3.2,1.5-5.7,3.7-7.7c2.2-1.9,4.9-2.9,8.2-2.9c3.2,0,5.9,1,8.1,2.9
  c2.2,1.9,3.3,4.5,3.3,7.7H310.3z M370.9,507.2h35.7v-103H370.9V507.2z M431.1,507.2h-36.7v-103h36.7V507.2z" fill="#3C4349"/>
</svg> 